<svg xmlns="http://www.w3.org/2000/svg" xmlns:xlink="http://www.w3.org/1999/xlink" contentStyleType="text/css" height="1865px" preserveAspectRatio="none" style="width:585px;height:1865px;background:#FFFFFF;" version="1.1" viewBox="0 0 585 1865" width="585px" zoomAndPan="magnify"><defs/><g><!--cluster USECASE GLOBAL--><g id="cluster_USECASE GLOBAL"><rect fill="#FFFFFF" height="1852" rx="2.5" ry="2.5" style="stroke:#AAAAAA;stroke-width:1.5;" width="465" x="114" y="7"/><text fill="#222222" font-family="Arial" font-size="14" font-weight="bold" lengthAdjust="spacing" textLength="130.6758" x="281.1621" y="22.1318">USECASE GLOBAL</text></g><g id="elem_AUTH"><ellipse cx="510.3836" cy="955.8767" fill="#FFD6E0" rx="52.3836" ry="12.8767" style="stroke:#181818;stroke-width:1.5;"/><text fill="#222222" font-family="Arial" font-size="11" lengthAdjust="spacing" textLength="63.8623" x="478.4525" y="957.8701">S'authentifier</text></g><g id="elem_UC15"><ellipse cx="247.9988" cy="529.0998" fill="#FFFACD" rx="73.4988" ry="17.0998" style="stroke:#181818;stroke-width:1.5;"/><text fill="#222222" font-family="Arial" font-size="11" lengthAdjust="spacing" textLength="114.0176" x="190.99" y="531.0932">G&#195;&#169;rer les employ&#195;&#169;s</text></g><g id="elem_UC16"><ellipse cx="248.1779" cy="599.9356" fill="#FFFACD" rx="80.1779" ry="18.4356" style="stroke:#181818;stroke-width:1.5;"/><text fill="#222222" font-family="Arial" font-size="11" lengthAdjust="spacing" textLength="128.8042" x="183.7758" y="601.929">G&#195;&#169;rer les offres d'emploi</text></g><g id="elem_UC17"><ellipse cx="247.9563" cy="671.1913" fill="#FFFACD" rx="76.4563" ry="17.6913" style="stroke:#181818;stroke-width:1.5;"/><text fill="#222222" font-family="Arial" font-size="11" lengthAdjust="spacing" textLength="120.6025" x="187.655" y="673.1847">G&#195;&#169;rer les candidatures</text></g><g id="elem_UC18"><ellipse cx="248.2004" cy="735.9401" fill="#FFFACD" rx="50.2004" ry="12.4401" style="stroke:#181818;stroke-width:1.5;"/><text fill="#222222" font-family="Arial" font-size="11" lengthAdjust="spacing" textLength="58.083" x="219.1589" y="737.9335">Matching IA</text></g><g id="elem_UC19"><ellipse cx="248.0195" cy="802.8039" fill="#FFFACD" rx="82.0195" ry="18.8039" style="stroke:#181818;stroke-width:1.5;"/><text fill="#222222" font-family="Arial" font-size="11" lengthAdjust="spacing" textLength="132.8325" x="181.6033" y="804.7973">G&#195;&#169;rer candidats externes</text></g><g id="elem_UC20"><ellipse cx="247.8858" cy="71.9772" fill="#FFFACD" rx="97.8858" ry="21.9772" style="stroke:#181818;stroke-width:1.5;"/><text fill="#222222" font-family="Arial" font-size="11" lengthAdjust="spacing" textLength="166.9229" x="164.4244" y="73.9706">Assigner entretiens aux managers</text></g><g id="elem_UC21"><ellipse cx="247.752" cy="146.1504" fill="#FFFACD" rx="71.252" ry="16.6504" style="stroke:#181818;stroke-width:1.5;"/><text fill="#222222" font-family="Arial" font-size="11" lengthAdjust="spacing" textLength="108.9688" x="193.2676" y="148.1438">G&#195;&#169;rer les formations</text></g><g id="elem_UC22"><ellipse cx="247.7793" cy="221.8559" fill="#FFFACD" rx="109.7793" ry="24.3559" style="stroke:#181818;stroke-width:1.5;"/><text fill="#222222" font-family="Arial" font-size="11" lengthAdjust="spacing" textLength="191.979" x="151.7898" y="223.8493">G&#195;&#169;rer comp&#195;&#169;tences / r&#195;&#169;f&#195;&#169;rentiel</text></g><g id="elem_UC23"><ellipse cx="248.1201" cy="304.024" fill="#FFFACD" rx="100.6201" ry="22.524" style="stroke:#181818;stroke-width:1.5;"/><text fill="#222222" font-family="Arial" font-size="11" lengthAdjust="spacing" textLength="172.7129" x="161.7637" y="306.0174">G&#195;&#169;rer d&#195;&#169;partements et services</text></g><g id="elem_UC24"><ellipse cx="248.1072" cy="384.2214" fill="#FFFACD" rx="99.1072" ry="22.2214" style="stroke:#181818;stroke-width:1.5;"/><text fill="#222222" font-family="Arial" font-size="11" lengthAdjust="spacing" textLength="169.5117" x="163.3514" y="386.2149">Extraire comp&#195;&#169;tences depuis CV</text></g><g id="elem_UC25"><ellipse cx="248.1123" cy="459.1225" fill="#FFFACD" rx="76.1123" ry="17.6225" style="stroke:#181818;stroke-width:1.5;"/><text fill="#222222" font-family="Arial" font-size="11" lengthAdjust="spacing" textLength="119.8398" x="188.1924" y="461.1159">Statistiques RH globales</text></g><g id="elem_UC1"><ellipse cx="248.2086" cy="955.8417" fill="#D6EAF8" rx="77.2086" ry="17.8417" style="stroke:#181818;stroke-width:1.5;"/><text fill="#222222" font-family="Arial" font-size="11" lengthAdjust="spacing" textLength="122.2676" x="187.0748" y="957.8351">Consulter / Modifier profil</text></g><g id="elem_UC2"><ellipse cx="248.1743" cy="1027.0349" fill="#D6EAF8" rx="75.6743" ry="17.5349" style="stroke:#181818;stroke-width:1.5;"/><text fill="#222222" font-family="Arial" font-size="11" lengthAdjust="spacing" textLength="118.8677" x="188.7405" y="1029.0283">Parcourir offres d'emploi</text></g><g id="elem_UC3"><ellipse cx="247.958" cy="1098.7916" fill="#D6EAF8" rx="81.958" ry="18.7916" style="stroke:#181818;stroke-width:1.5;"/><text fill="#222222" font-family="Arial" font-size="11" lengthAdjust="spacing" textLength="132.6982" x="181.6089" y="1100.785">Soumettre une candidature</text></g><g id="elem_UC4"><ellipse cx="248.1624" cy="1171.2325" fill="#D6EAF8" rx="76.6624" ry="17.7325" style="stroke:#181818;stroke-width:1.5;"/><text fill="#222222" font-family="Arial" font-size="11" lengthAdjust="spacing" textLength="121.0591" x="187.6329" y="1173.2259">Suivre mes candidatures</text></g><g id="elem_UC5"><ellipse cx="248.1702" cy="1242.234" fill="#D6EAF8" rx="81.6702" ry="18.734" style="stroke:#181818;stroke-width:1.5;"/><text fill="#222222" font-family="Arial" font-size="11" lengthAdjust="spacing" textLength="132.0698" x="182.1353" y="1244.2274">Uploader CV et documents</text></g><g id="elem_UC6"><ellipse cx="248.0938" cy="1314.1188" fill="#D6EAF8" rx="78.5938" ry="18.1188" style="stroke:#181818;stroke-width:1.5;"/><text fill="#222222" font-family="Arial" font-size="11" lengthAdjust="spacing" textLength="125.3237" x="185.4319" y="1316.1122">Consulter mes formations</text></g><g id="elem_UC7"><ellipse cx="247.7925" cy="1388.9585" fill="#D6EAF8" rx="95.2925" ry="21.4585" style="stroke:#181818;stroke-width:1.5;"/><text fill="#222222" font-family="Arial" font-size="11" lengthAdjust="spacing" textLength="161.4121" x="167.0865" y="1390.9519">Accepter / Refuser une formation</text></g><g id="elem_UC8"><ellipse cx="247.7726" cy="880.0545" fill="#D6EAF8" rx="100.7726" ry="22.5545" style="stroke:#181818;stroke-width:1.5;"/><text fill="#222222" font-family="Arial" font-size="11" lengthAdjust="spacing" textLength="173.0352" x="161.255" y="882.0479">Consulter annuaire / organigramme</text></g><g id="elem_UC9"><ellipse cx="247.9351" cy="1461.887" fill="#D5F5E3" rx="67.4351" ry="15.887" style="stroke:#181818;stroke-width:1.5;"/><text fill="#222222" font-family="Arial" font-size="11" lengthAdjust="spacing" textLength="100.2837" x="197.7932" y="1463.8804">Dashboard Manager</text></g><g id="elem_UC10"><ellipse cx="247.9364" cy="1534.9873" fill="#D5F5E3" rx="95.4364" ry="21.4873" style="stroke:#181818;stroke-width:1.5;"/><text fill="#222222" font-family="Arial" font-size="11" lengthAdjust="spacing" textLength="161.7183" x="167.0772" y="1536.9807">G&#195;&#169;rer les entretiens assign&#195;&#169;s</text></g><g id="elem_UC11"><ellipse cx="248.202" cy="1607.9404" fill="#D5F5E3" rx="67.702" ry="15.9404" style="stroke:#181818;stroke-width:1.5;"/><text fill="#222222" font-family="Arial" font-size="11" lengthAdjust="spacing" textLength="100.896" x="197.754" y="1609.9338">Planifier un entretien</text></g><g id="elem_UC12"><ellipse cx="247.9521" cy="1679.1904" fill="#D5F5E3" rx="86.4521" ry="19.6904" style="stroke:#181818;stroke-width:1.5;"/><text fill="#222222" font-family="Arial" font-size="11" lengthAdjust="spacing" textLength="142.4575" x="176.7233" y="1681.1838">Recommander une formation</text></g><g id="elem_UC13"><ellipse cx="248.0177" cy="1750.0035" fill="#D5F5E3" rx="70.5177" ry="16.5035" style="stroke:#181818;stroke-width:1.5;"/><text fill="#222222" font-family="Arial" font-size="11" lengthAdjust="spacing" textLength="107.3091" x="194.3631" y="1751.9969">G&#195;&#169;rer mon &#195;&#169;quipe</text></g><g id="elem_UC14"><ellipse cx="247.9238" cy="1818.0848" fill="#D5F5E3" rx="70.9238" ry="16.5848" style="stroke:#181818;stroke-width:1.5;"/><text fill="#222222" font-family="Arial" font-size="11" lengthAdjust="spacing" textLength="108.2275" x="193.81" y="1820.0782">Statistiques entretiens</text></g><!--entity RH--><g id="elem_RH"><ellipse cx="36.5" cy="466.5" fill="#FFFFFF" rx="8" ry="8" style="stroke:#333333;stroke-width:0.5;"/><path d="M36.5,474.5 L36.5,501.5 M23.5,482.5 L49.5,482.5 M36.5,501.5 L23.5,516.5 M36.5,501.5 L49.5,516.5 " fill="none" style="stroke:#333333;stroke-width:0.5;"/><text fill="#000000" font-family="Arial" font-size="12" font-weight="bold" lengthAdjust="spacing" textLength="17.332" x="27.834" y="529.2559">RH</text></g><!--entity EMP--><g id="elem_EMP"><ellipse cx="36.4248" cy="1106.5" fill="#FFFFFF" rx="8" ry="8" style="stroke:#333333;stroke-width:0.5;"/><path d="M36.4248,1114.5 L36.4248,1141.5 M23.4248,1122.5 L49.4248,1122.5 M36.4248,1141.5 L23.4248,1156.5 M36.4248,1141.5 L49.4248,1156.5 " fill="none" style="stroke:#333333;stroke-width:0.5;"/><text fill="#000000" font-family="Arial" font-size="12" font-weight="bold" lengthAdjust="spacing" textLength="60.8496" x="6" y="1169.2559">Employ&#195;&#169;</text></g><!--entity MGR--><g id="elem_MGR"><ellipse cx="36.6738" cy="1579.5" fill="#FFFFFF" rx="8" ry="8" style="stroke:#333333;stroke-width:0.5;"/><path d="M36.6738,1587.5 L36.6738,1614.5 M23.6738,1595.5 L49.6738,1595.5 M36.6738,1614.5 L23.6738,1629.5 M36.6738,1614.5 L49.6738,1629.5 " fill="none" style="stroke:#333333;stroke-width:0.5;"/><text fill="#000000" font-family="Arial" font-size="12" font-weight="bold" lengthAdjust="spacing" textLength="49.3477" x="12" y="1642.2559">Manager</text></g><!--link UC25 to UC1--><!--link UC8 to UC9--><!--link RH to UC15--><g id="link_RH_UC15"><path d="M50.29,497.08 C76.94,501.4 133.9775,510.6587 181.5375,518.3787 " fill="none" id="RH-to-UC15" style="stroke:#888888;stroke-width:1.0;stroke-dasharray:7.0,7.0;"/><polygon fill="#888888" points="187.46,519.34,179.2172,513.9497,182.5246,518.5389,177.9354,521.8463,187.46,519.34" style="stroke:#888888;stroke-width:1.0;"/></g><!--link RH to UC16--><g id="link_RH_UC16"><path d="M50.06,511.79 C62.57,527.33 83.16,549.95 106,563 C128.63,575.93 150.029,583.1211 174.509,588.6811 " fill="none" id="RH-to-UC16" style="stroke:#888888;stroke-width:1.0;stroke-dasharray:7.0,7.0;"/><polygon fill="#888888" points="180.36,590.01,172.4695,584.116,175.4842,588.9026,170.6976,591.9173,180.36,590.01" style="stroke:#888888;stroke-width:1.0;"/></g><!--link RH to UC17--><g id="link_RH_UC17"><path d="M46.04,532.06 C55.38,564.25 73.54,609.7 106,636 C125.5,651.8 145.2587,659.4125 169.3287,664.2725 " fill="none" id="RH-to-UC17" style="stroke:#888888;stroke-width:1.0;stroke-dasharray:7.0,7.0;"/><polygon fill="#888888" points="175.21,665.46,167.1797,659.7579,170.3089,664.4704,165.5964,667.5996,175.21,665.46" style="stroke:#888888;stroke-width:1.0;"/></g><!--link RH to UC18--><g id="link_RH_UC18"><path d="M38.76,532.27 C42.46,579.79 56.21,661.15 106,706 C130.82,728.36 162.1104,735.2065 192.1004,736.9765 " fill="none" id="RH-to-UC18" style="stroke:#888888;stroke-width:1.0;stroke-dasharray:7.0,7.0;"/><polygon fill="#888888" points="198.09,737.33,189.3413,732.8067,193.0987,737.0354,188.87,740.7928,198.09,737.33" style="stroke:#888888;stroke-width:1.0;"/></g><!--link RH to UC19--><g id="link_RH_UC19"><path d="M42.2,532.17 C51.3,598.43 73.38,733.08 106,766 C122.75,782.9 140.3495,791.0391 163.3395,796.2691 " fill="none" id="RH-to-UC19" style="stroke:#888888;stroke-width:1.0;stroke-dasharray:7.0,7.0;"/><polygon fill="#888888" points="169.19,797.6,161.3015,791.7032,164.3146,796.4909,159.5269,799.5039,169.19,797.6" style="stroke:#888888;stroke-width:1.0;"/></g><!--link RH to UC20--><g id="link_RH_UC20"><path d="M39.25,457.82 C44.04,371.8 60.22,162.58 106,112 C119.75,96.81 133.0524,88.9749 152.7024,82.9649 " fill="none" id="RH-to-UC20" style="stroke:#888888;stroke-width:1.0;stroke-dasharray:7.0,7.0;"/><polygon fill="#888888" points="158.44,81.21,148.6636,80.0172,153.6586,82.6724,151.0035,87.6674,158.44,81.21" style="stroke:#888888;stroke-width:1.0;"/></g><!--link RH to UC21--><g id="link_RH_UC21"><path d="M40.68,457.95 C47.82,383.45 67.61,219.27 106,180 C124.4,161.19 145.351,153.0526 170.711,148.8426 " fill="none" id="RH-to-UC21" style="stroke:#888888;stroke-width:1.0;stroke-dasharray:7.0,7.0;"/><polygon fill="#888888" points="176.63,147.86,167.0964,145.3879,171.6975,148.6788,168.4066,153.2799,176.63,147.86" style="stroke:#888888;stroke-width:1.0;"/></g><!--link RH to UC22--><g id="link_RH_UC22"><path d="M38.07,457.98 C40.89,407.27 53.53,316.53 106,264 C119.36,250.63 131.1023,243.4489 149.1223,237.1889 " fill="none" id="RH-to-UC22" style="stroke:#888888;stroke-width:1.0;stroke-dasharray:7.0,7.0;"/><polygon fill="#888888" points="154.79,235.22,144.9758,234.3949,150.0669,236.8608,147.601,241.9519,154.79,235.22" style="stroke:#888888;stroke-width:1.0;"/></g><!--link RH to UC23--><g id="link_RH_UC23"><path d="M44.94,457.95 C53.74,423.6 71.75,373.48 106,344 C121.72,330.47 135.9693,323.2114 155.9293,317.2714 " fill="none" id="RH-to-UC23" style="stroke:#888888;stroke-width:1.0;stroke-dasharray:7.0,7.0;"/><polygon fill="#888888" points="161.68,315.56,151.9129,314.2933,156.8877,316.9862,154.1948,321.9609,161.68,315.56" style="stroke:#888888;stroke-width:1.0;"/></g><!--link RH to UC24--><g id="link_RH_UC24"><path d="M50.2,477.25 C62.66,461.1 83.08,437.73 106,424 C125.64,412.23 143.1124,405.3723 165.0224,399.3823 " fill="none" id="RH-to-UC24" style="stroke:#888888;stroke-width:1.0;stroke-dasharray:7.0,7.0;"/><polygon fill="#888888" points="170.81,397.8,161.0737,396.315,165.987,399.1186,163.1834,404.0318,170.81,397.8" style="stroke:#888888;stroke-width:1.0;"/></g><!--link RH to UC25--><g id="link_RH_UC25"><path d="M50.29,492.8 C76.76,488.25 133.1468,478.5669 180.5968,470.4069 " fill="none" id="RH-to-UC25" style="stroke:#888888;stroke-width:1.0;stroke-dasharray:7.0,7.0;"/><polygon fill="#888888" points="186.51,469.39,176.9623,466.9732,181.5823,470.2374,178.3181,474.8575,186.51,469.39" style="stroke:#888888;stroke-width:1.0;"/></g><!--link RH to UC8--><g id="link_RH_UC8"><path d="M40.15,532.1 C46.53,611.31 65.35,793.4 106,838 C119.85,853.19 133.2145,861.1643 152.8745,867.4443 " fill="none" id="RH-to-UC8" style="stroke:#888888;stroke-width:1.0;stroke-dasharray:7.0,7.0;"/><polygon fill="#888888" points="158.59,869.27,151.2339,862.7211,153.8271,867.7486,148.7996,870.3418,158.59,869.27" style="stroke:#888888;stroke-width:1.0;"/></g><!--link EMP to UC1--><g id="link_EMP_UC1"><path d="M45.85,1097.79 C55.09,1065.17 73.22,1018.89 106,992 C125.44,976.06 145.1869,968.2973 169.2569,963.2673 " fill="none" id="EMP-to-UC1" style="stroke:#888888;stroke-width:1.0;stroke-dasharray:7.0,7.0;"/><polygon fill="#888888" points="175.13,962.04,165.5021,959.9656,170.2357,963.0628,167.1385,967.7964,175.13,962.04" style="stroke:#888888;stroke-width:1.0;"/></g><!--link EMP to UC2--><g id="link_EMP_UC2"><path d="M65.11,1097.64 C76.45,1084.64 90.56,1071.05 106,1062 C128.74,1048.67 150.5346,1041.6063 175.3146,1036.4763 " fill="none" id="EMP-to-UC2" style="stroke:#888888;stroke-width:1.0;stroke-dasharray:7.0,7.0;"/><polygon fill="#888888" points="181.19,1035.26,171.566,1033.1676,176.2938,1036.2736,173.1878,1041.0015,181.19,1035.26" style="stroke:#888888;stroke-width:1.0;"/></g><!--link EMP to UC3--><g id="link_EMP_UC3"><path d="M67.07,1129.92 C96.74,1124.82 137.4866,1117.8156 175.8566,1111.2256 " fill="none" id="EMP-to-UC3" style="stroke:#888888;stroke-width:1.0;stroke-dasharray:7.0,7.0;"/><polygon fill="#888888" points="181.77,1110.21,172.2228,1107.7912,176.8422,1111.0564,173.577,1115.6757,181.77,1110.21" style="stroke:#888888;stroke-width:1.0;"/></g><!--link EMP to UC4--><g id="link_EMP_UC4"><path d="M67.07,1140.08 C97.86,1145.37 141.0568,1152.7932 180.1968,1159.5232 " fill="none" id="EMP-to-UC4" style="stroke:#888888;stroke-width:1.0;stroke-dasharray:7.0,7.0;"/><polygon fill="#888888" points="186.11,1160.54,177.918,1155.0727,181.1823,1159.6927,176.5623,1162.957,186.11,1160.54" style="stroke:#888888;stroke-width:1.0;"/></g><!--link EMP to UC5--><g id="link_EMP_UC5"><path d="M65.98,1172 C77.23,1184.42 91.04,1197.3 106,1206 C127.84,1218.7 148.275,1225.6591 172.215,1231.0191 " fill="none" id="EMP-to-UC5" style="stroke:#888888;stroke-width:1.0;stroke-dasharray:7.0,7.0;"/><polygon fill="#888888" points="178.07,1232.33,170.1614,1226.4603,173.1908,1231.2376,168.4135,1234.267,178.07,1232.33" style="stroke:#888888;stroke-width:1.0;"/></g><!--link EMP to UC6--><g id="link_EMP_UC6"><path d="M45.85,1172.21 C55.09,1204.83 73.22,1251.11 106,1278 C125.14,1293.7 144.4222,1301.4074 168.1722,1306.4774 " fill="none" id="EMP-to-UC6" style="stroke:#888888;stroke-width:1.0;stroke-dasharray:7.0,7.0;"/><polygon fill="#888888" points="174.04,1307.73,166.0734,1301.9392,169.1502,1306.6862,164.4032,1309.7629,174.04,1307.73" style="stroke:#888888;stroke-width:1.0;"/></g><!--link EMP to UC7--><g id="link_EMP_UC7"><path d="M39.06,1172.28 C43.1,1219.91 57.21,1301.81 106,1349 C121.36,1363.86 136.0665,1371.6021 156.6265,1377.5521 " fill="none" id="EMP-to-UC7" style="stroke:#888888;stroke-width:1.0;stroke-dasharray:7.0,7.0;"/><polygon fill="#888888" points="162.39,1379.22,154.8567,1372.8758,157.5871,1377.83,152.6328,1380.5604,162.39,1379.22" style="stroke:#888888;stroke-width:1.0;"/></g><!--link EMP to UC8--><g id="link_EMP_UC8"><path d="M38.98,1097.96 C42.91,1050.18 56.89,967.56 106,920 C120.53,905.93 133.896,898.5068 153.336,892.5168 " fill="none" id="EMP-to-UC8" style="stroke:#888888;stroke-width:1.0;stroke-dasharray:7.0,7.0;"/><polygon fill="#888888" points="159.07,890.75,149.2912,889.5775,154.2917,892.2223,151.6469,897.2228,159.07,890.75" style="stroke:#888888;stroke-width:1.0;"/></g><!--link MGR to UC9--><g id="link_MGR_UC9"><path d="M51.3,1570.89 C62.39,1546.06 80.39,1514.65 106,1496 C128.29,1479.77 151.3981,1472.2345 177.3081,1467.7445 " fill="none" id="MGR-to-UC9" style="stroke:#888888;stroke-width:1.0;stroke-dasharray:7.0,7.0;"/><polygon fill="#888888" points="183.22,1466.72,173.6692,1464.3155,178.2934,1467.5737,175.0352,1472.198,183.22,1466.72" style="stroke:#888888;stroke-width:1.0;"/></g><!--link MGR to UC10--><g id="link_MGR_UC10"><path d="M61.09,1594.89 C74.07,1588.04 90.62,1579.88 106,1574 C130.08,1564.79 151.429,1558.2824 175.429,1551.9424 " fill="none" id="MGR-to-UC10" style="stroke:#888888;stroke-width:1.0;stroke-dasharray:7.0,7.0;"/><polygon fill="#888888" points="181.23,1550.41,171.5069,1548.8413,176.3958,1551.687,173.5501,1556.576,181.23,1550.41" style="stroke:#888888;stroke-width:1.0;"/></g><!--link MGR to UC11--><g id="link_MGR_UC11"><path d="M61.13,1608 C89.8,1608 133.39,1608 174.13,1608 " fill="none" id="MGR-to-UC11" style="stroke:#888888;stroke-width:1.0;stroke-dasharray:7.0,7.0;"/><polygon fill="#888888" points="180.13,1608,171.13,1604,175.13,1608,171.13,1612,180.13,1608" style="stroke:#888888;stroke-width:1.0;"/></g><!--link MGR to UC12--><g id="link_MGR_UC12"><path d="M61.12,1620.72 C74.11,1627.37 90.66,1635.29 106,1641 C131.78,1650.59 155.2231,1657.409 180.3731,1663.769 " fill="none" id="MGR-to-UC12" style="stroke:#888888;stroke-width:1.0;stroke-dasharray:7.0,7.0;"/><polygon fill="#888888" points="186.19,1665.24,178.4453,1659.1556,181.3426,1664.0142,176.484,1666.9114,186.19,1665.24" style="stroke:#888888;stroke-width:1.0;"/></g><!--link MGR to UC13--><g id="link_MGR_UC13"><path d="M52.23,1645.1 C63.51,1668.83 81.35,1698.36 106,1716 C127.71,1731.53 149.7084,1738.9478 174.9584,1743.5778 " fill="none" id="MGR-to-UC13" style="stroke:#888888;stroke-width:1.0;stroke-dasharray:7.0,7.0;"/><polygon fill="#888888" points="180.86,1744.66,172.729,1739.1024,175.942,1743.7582,171.2862,1746.9712,180.86,1744.66" style="stroke:#888888;stroke-width:1.0;"/></g><!--link MGR to UC14--><g id="link_MGR_UC14"><path d="M41.81,1645.05 C48.48,1685.2 65.14,1748.3 106,1784 C125.91,1801.4 147.2985,1809.213 172.5685,1813.603 " fill="none" id="MGR-to-UC14" style="stroke:#888888;stroke-width:1.0;stroke-dasharray:7.0,7.0;"/><polygon fill="#888888" points="178.48,1814.63,170.2975,1809.1486,173.5538,1813.7742,168.9282,1817.0305,178.48,1814.63" style="stroke:#888888;stroke-width:1.0;"/></g><!--link MGR to UC8--><g id="link_MGR_UC8"><path d="M40.06,1570.62 C49.77,1430.78 84.91,945.2 106,920 C118.66,904.88 130.8603,897.0836 149.6903,891.0036 " fill="none" id="MGR-to-UC8" style="stroke:#888888;stroke-width:1.0;stroke-dasharray:7.0,7.0;"/><polygon fill="#888888" points="155.4,889.16,145.6063,888.1189,150.6419,890.6963,148.0645,895.7319,155.4,889.16" style="stroke:#888888;stroke-width:1.0;"/></g><!--link UC15 to AUTH--><g id="link_UC15_AUTH"><path d="M306.09,539.5 C326.05,544.83 347.96,552.66 366,564 C400.63,585.76 408.65,595.97 428,632 C487.28,742.37 504.0344,891.1722 507.9744,936.8522 " fill="none" id="UC15-to-AUTH" style="stroke:#888888;stroke-width:1.0;stroke-dasharray:7.0,7.0;"/><polygon fill="#888888" points="508.49,942.83,511.7018,933.5196,508.0603,937.8485,503.7314,934.207,508.49,942.83" style="stroke:#888888;stroke-width:1.0;"/><text fill="#000000" font-family="Arial" font-size="9" lengthAdjust="spacing" textLength="38.5313" x="389" y="577.4419">&#171;include&#187;</text></g><!--link UC16 to AUTH--><g id="link_UC16_AUTH"><path d="M308.94,612.12 C328.07,617.61 348.74,625.33 366,636 C399.96,657 407.63,666.67 428,701 C478.05,785.34 499.9739,897.9616 506.4839,937.0316 " fill="none" id="UC16-to-AUTH" style="stroke:#888888;stroke-width:1.0;stroke-dasharray:7.0,7.0;"/><polygon fill="#888888" points="507.47,942.95,509.9364,933.415,506.6482,938.018,502.0452,934.7298,507.47,942.95" style="stroke:#888888;stroke-width:1.0;"/><text fill="#000000" font-family="Arial" font-size="9" lengthAdjust="spacing" textLength="38.5313" x="389" y="649.4419">&#171;include&#187;</text></g><!--link UC17 to AUTH--><g id="link_UC17_AUTH"><path d="M306.26,682.38 C326.01,687.77 347.75,695.41 366,706 C398.9,725.09 406.31,733.75 428,765 C469.94,825.42 495.1455,905.0598 504.3255,937.2698 " fill="none" id="UC17-to-AUTH" style="stroke:#888888;stroke-width:1.0;stroke-dasharray:7.0,7.0;"/><polygon fill="#888888" points="505.97,943.04,507.35,933.2883,504.5995,938.2315,499.6564,935.481,505.97,943.04" style="stroke:#888888;stroke-width:1.0;"/><text fill="#000000" font-family="Arial" font-size="9" lengthAdjust="spacing" textLength="38.5313" x="389" y="718.4419">&#171;include&#187;</text></g><!--link UC18 to AUTH--><g id="link_UC18_AUTH"><path d="M293.99,741.08 C316.85,745.2 344.31,752.64 366,766 C439.04,810.98 485.4729,902.4052 501.3829,937.5052 " fill="none" id="UC18-to-AUTH" style="stroke:#888888;stroke-width:1.0;stroke-dasharray:7.0,7.0;"/><polygon fill="#888888" points="503.86,942.97,503.7876,933.1214,501.7958,938.416,496.5012,936.4242,503.86,942.97" style="stroke:#888888;stroke-width:1.0;"/><text fill="#000000" font-family="Arial" font-size="9" lengthAdjust="spacing" textLength="38.5313" x="389" y="782.4419">&#171;include&#187;</text></g><!--link UC19 to AUTH--><g id="link_UC19_AUTH"><path d="M305.15,816.75 C325.02,822.76 347.11,830.81 366,841 C419.66,869.96 468.8613,915.5036 492.5513,938.9036 " fill="none" id="UC19-to-AUTH" style="stroke:#888888;stroke-width:1.0;stroke-dasharray:7.0,7.0;"/><polygon fill="#888888" points="496.82,943.12,493.2279,933.9496,493.2628,939.6063,487.606,939.6411,496.82,943.12" style="stroke:#888888;stroke-width:1.0;"/><text fill="#000000" font-family="Arial" font-size="9" lengthAdjust="spacing" textLength="38.5313" x="389" y="854.4419">&#171;include&#187;</text></g><!--link UC20 to AUTH--><g id="link_UC20_AUTH"><path d="M314.74,88.25 C332.19,94.19 350.49,101.99 366,112 C399.82,133.82 411.25,141.41 428,178 C494.13,322.48 507.3401,846.8612 509.1401,936.9512 " fill="none" id="UC20-to-AUTH" style="stroke:#888888;stroke-width:1.0;stroke-dasharray:7.0,7.0;"/><polygon fill="#888888" points="509.26,942.95,513.0794,933.8719,509.1601,937.951,505.081,934.0317,509.26,942.95" style="stroke:#888888;stroke-width:1.0;"/><text fill="#000000" font-family="Arial" font-size="9" lengthAdjust="spacing" textLength="38.5313" x="389" y="124.4419">&#171;include&#187;</text></g><!--link UC21 to AUTH--><g id="link_UC21_AUTH"><path d="M307.58,155.28 C327.35,160.35 348.75,168.12 366,180 C403.63,205.92 410.96,219.61 428,262 C480.59,392.85 504.5945,852.4668 508.6145,936.8468 " fill="none" id="UC21-to-AUTH" style="stroke:#888888;stroke-width:1.0;stroke-dasharray:7.0,7.0;"/><polygon fill="#888888" points="508.9,942.84,512.4672,933.6598,508.6621,937.8457,504.4762,934.0405,508.9,942.84" style="stroke:#888888;stroke-width:1.0;"/><text fill="#000000" font-family="Arial" font-size="9" lengthAdjust="spacing" textLength="38.5313" x="389" y="195.4419">&#171;include&#187;</text></g><!--link UC22 to AUTH--><g id="link_UC22_AUTH"><path d="M320.5,240.57 C336.32,246.56 352.41,254.26 366,264 C401.99,289.8 410.68,301.24 428,342 C476.57,456.31 503.4797,858.2714 508.3397,936.8614 " fill="none" id="UC22-to-AUTH" style="stroke:#888888;stroke-width:1.0;stroke-dasharray:7.0,7.0;"/><polygon fill="#888888" points="508.71,942.85,512.1469,933.6203,508.4014,937.8595,504.1621,934.114,508.71,942.85" style="stroke:#888888;stroke-width:1.0;"/><text fill="#000000" font-family="Arial" font-size="9" lengthAdjust="spacing" textLength="38.5313" x="389" y="279.4419">&#171;include&#187;</text></g><!--link UC23 to AUTH--><g id="link_UC23_AUTH"><path d="M317.3,320.34 C334.1,326.2 351.43,333.93 366,344 C401.58,368.59 410.34,379.52 428,419 C472.1,517.55 502.0359,863.5096 507.9559,936.6496 " fill="none" id="UC23-to-AUTH" style="stroke:#888888;stroke-width:1.0;stroke-dasharray:7.0,7.0;"/><polygon fill="#888888" points="508.44,942.63,511.7009,933.3366,508.0366,937.6463,503.7269,933.982,508.44,942.63" style="stroke:#888888;stroke-width:1.0;"/><text fill="#000000" font-family="Arial" font-size="9" lengthAdjust="spacing" textLength="38.5313" x="389" y="359.4419">&#171;include&#187;</text></g><!--link UC24 to AUTH--><g id="link_UC24_AUTH"><path d="M314.69,400.33 C332.14,406.27 350.45,414.05 366,424 C399.63,445.52 410.02,453.36 428,489 C510.67,652.86 511.2909,879.6114 510.0409,936.8914 " fill="none" id="UC24-to-AUTH" style="stroke:#888888;stroke-width:1.0;stroke-dasharray:7.0,7.0;"/><polygon fill="#888888" points="509.91,942.89,514.1054,933.9794,510.0191,937.8912,506.1073,933.8049,509.91,942.89" style="stroke:#888888;stroke-width:1.0;"/><text fill="#000000" font-family="Arial" font-size="9" lengthAdjust="spacing" textLength="38.5313" x="389" y="436.4419">&#171;include&#187;</text></g><!--link UC25 to AUTH--><g id="link_UC25_AUTH"><path d="M307.49,470.06 C327.04,475.39 348.33,483.08 366,494 C400.23,515.16 409.47,524.28 428,560 C499.11,697.07 508.0569,885.0115 509.2069,936.8415 " fill="none" id="UC25-to-AUTH" style="stroke:#888888;stroke-width:1.0;stroke-dasharray:7.0,7.0;"/><polygon fill="#888888" points="509.34,942.84,513.1394,933.7535,509.2291,937.8412,505.1413,933.9309,509.34,942.84" style="stroke:#888888;stroke-width:1.0;"/><text fill="#000000" font-family="Arial" font-size="9" lengthAdjust="spacing" textLength="38.5313" x="389" y="506.4419">&#171;include&#187;</text></g><!--link UC1 to AUTH--><g id="link_UC1_AUTH"><path d="M325.05,956 C367.7,956 413.78,956 451.72,956 " fill="none" id="UC1-to-AUTH" style="stroke:#888888;stroke-width:1.0;stroke-dasharray:7.0,7.0;"/><polygon fill="#888888" points="457.72,956,448.72,952,452.72,956,448.72,960,457.72,956" style="stroke:#888888;stroke-width:1.0;"/><text fill="#000000" font-family="Arial" font-size="9" lengthAdjust="spacing" textLength="38.5313" x="389" y="953.4419">&#171;include&#187;</text></g><!--link UC2 to AUTH--><g id="link_UC2_AUTH"><path d="M297.69,1013.73 C349.09,999.72 423.0412,979.5681 468.6012,967.1481 " fill="none" id="UC2-to-AUTH" style="stroke:#888888;stroke-width:1.0;stroke-dasharray:7.0,7.0;"/><polygon fill="#888888" points="474.39,965.57,464.6548,964.0779,469.566,966.885,466.7589,971.7963,474.39,965.57" style="stroke:#888888;stroke-width:1.0;"/><text fill="#000000" font-family="Arial" font-size="9" lengthAdjust="spacing" textLength="38.5313" x="389" y="976.4419">&#171;include&#187;</text></g><!--link UC3 to AUTH--><g id="link_UC3_AUTH"><path d="M305.24,1085.3 C325.01,1079.43 347.02,1071.67 366,1062 C418.16,1035.42 467.048,994.3102 491.408,972.5202 " fill="none" id="UC3-to-AUTH" style="stroke:#888888;stroke-width:1.0;stroke-dasharray:7.0,7.0;"/><polygon fill="#888888" points="495.88,968.52,486.5053,971.539,492.1534,971.8535,491.8388,977.5016,495.88,968.52" style="stroke:#888888;stroke-width:1.0;"/><text fill="#000000" font-family="Arial" font-size="9" lengthAdjust="spacing" textLength="38.5313" x="389" y="1024.4419">&#171;include&#187;</text></g><!--link UC4 to AUTH--><g id="link_UC4_AUTH"><path d="M306.64,1159.71 C326.44,1154.2 348.1,1146.26 366,1135 C435.12,1091.54 482.8065,1008.2309 500.1565,974.6409 " fill="none" id="UC4-to-AUTH" style="stroke:#888888;stroke-width:1.0;stroke-dasharray:7.0,7.0;"/><polygon fill="#888888" points="502.91,969.31,495.2258,975.4706,500.6154,973.7524,502.3336,979.142,502.91,969.31" style="stroke:#888888;stroke-width:1.0;"/><text fill="#000000" font-family="Arial" font-size="9" lengthAdjust="spacing" textLength="38.5313" x="389" y="1079.4419">&#171;include&#187;</text></g><!--link UC5 to AUTH--><g id="link_UC5_AUTH"><path d="M310.04,1229.92 C328.92,1224.47 349.17,1216.76 366,1206 C456.45,1148.2 494.6418,1017.5675 505.1118,974.8475 " fill="none" id="UC5-to-AUTH" style="stroke:#888888;stroke-width:1.0;stroke-dasharray:7.0,7.0;"/><polygon fill="#888888" points="506.54,969.02,500.5126,976.8091,505.3498,973.8763,508.2827,978.7135,506.54,969.02" style="stroke:#888888;stroke-width:1.0;"/><text fill="#000000" font-family="Arial" font-size="9" lengthAdjust="spacing" textLength="38.5313" x="389" y="1145.4419">&#171;include&#187;</text></g><!--link UC6 to AUTH--><g id="link_UC6_AUTH"><path d="M308.58,1302.42 C327.89,1296.95 348.76,1289.11 366,1278 C374.73,1272.37 422.85,1217.02 428,1208 C475.99,1123.95 499.0789,1013.6418 506.1589,974.9918 " fill="none" id="UC6-to-AUTH" style="stroke:#888888;stroke-width:1.0;stroke-dasharray:7.0,7.0;"/><polygon fill="#888888" points="507.24,969.09,501.6838,977.222,506.3391,974.0082,509.5529,978.6634,507.24,969.09" style="stroke:#888888;stroke-width:1.0;"/><text fill="#000000" font-family="Arial" font-size="9" lengthAdjust="spacing" textLength="38.5313" x="389" y="1205.4419">&#171;include&#187;</text></g><!--link UC7 to AUTH--><g id="link_UC7_AUTH"><path d="M318.61,1374.38 C335.39,1368.5 352.38,1360.32 366,1349 C381.31,1336.28 375.66,1325.61 388,1310 C403.02,1291 415.59,1293.8 428,1273 C490.89,1167.6 505.2731,1020.3762 508.3531,975.0662 " fill="none" id="UC7-to-AUTH" style="stroke:#888888;stroke-width:1.0;stroke-dasharray:7.0,7.0;"/><polygon fill="#888888" points="508.76,969.08,504.1588,977.788,508.4209,974.0685,512.1404,978.3306,508.76,969.08" style="stroke:#888888;stroke-width:1.0;"/><text fill="#000000" font-family="Arial" font-size="9" lengthAdjust="spacing" textLength="38.5313" x="389" y="1270.4419">&#171;include&#187;</text></g><!--link UC8 to AUTH--><g id="link_UC8_AUTH"><path d="M310.08,897.82 C361.81,912.91 428.2899,932.3104 470.1299,944.5104 " fill="none" id="UC8-to-AUTH" style="stroke:#888888;stroke-width:1.0;stroke-dasharray:7.0,7.0;"/><polygon fill="#888888" points="475.89,946.19,468.3695,939.8306,471.0899,944.7904,466.1301,947.5107,475.89,946.19" style="stroke:#888888;stroke-width:1.0;"/><text fill="#000000" font-family="Arial" font-size="9" lengthAdjust="spacing" textLength="38.5313" x="389" y="920.4419">&#171;include&#187;</text></g><!--link UC9 to AUTH--><g id="link_UC9_AUTH"><path d="M309.23,1455.08 C329.38,1450.1 350.6,1441.57 366,1427 C386.94,1407.19 372.08,1390.02 388,1366 C401.38,1345.81 415.97,1350.02 428,1329 C500.09,1203 508.3705,1025.609 509.2905,975.229 " fill="none" id="UC9-to-AUTH" style="stroke:#888888;stroke-width:1.0;stroke-dasharray:7.0,7.0;"/><polygon fill="#888888" points="509.4,969.23,505.2363,978.1555,509.3087,974.2292,513.235,978.3015,509.4,969.23" style="stroke:#888888;stroke-width:1.0;"/><text fill="#000000" font-family="Arial" font-size="9" lengthAdjust="spacing" textLength="38.5313" x="389" y="1326.4419">&#171;include&#187;</text></g><!--link UC10 to AUTH--><g id="link_UC10_AUTH"><path d="M321.89,1521.33 C338.02,1515.44 353.89,1507.03 366,1495 C387.04,1474.1 373.11,1457.65 388,1432 C401.6,1408.57 416.18,1410.38 428,1386 C501.44,1234.57 508.738,1029.2696 509.388,975.0696 " fill="none" id="UC10-to-AUTH" style="stroke:#888888;stroke-width:1.0;stroke-dasharray:7.0,7.0;"/><polygon fill="#888888" points="509.46,969.07,505.3524,978.0214,509.4,974.0696,513.3518,978.1173,509.46,969.07" style="stroke:#888888;stroke-width:1.0;"/><text fill="#000000" font-family="Arial" font-size="9" lengthAdjust="spacing" textLength="38.5313" x="389" y="1383.4419">&#171;include&#187;</text></g><!--link UC11 to AUTH--><g id="link_UC11_AUTH"><path d="M309.85,1601.54 C329.82,1596.71 350.77,1588.37 366,1574 C387.27,1553.93 374.9,1538.14 388,1512 C402.36,1483.35 416.25,1481.82 428,1452 C499.52,1270.55 508.1706,1033.869 509.2406,975.179 " fill="none" id="UC11-to-AUTH" style="stroke:#888888;stroke-width:1.0;stroke-dasharray:7.0,7.0;"/><polygon fill="#888888" points="509.35,969.18,505.1866,978.1056,509.2589,974.1792,513.1853,978.2514,509.35,969.18" style="stroke:#888888;stroke-width:1.0;"/><text fill="#000000" font-family="Arial" font-size="9" lengthAdjust="spacing" textLength="38.5313" x="389" y="1449.4419">&#171;include&#187;</text></g><!--link UC12 to AUTH--><g id="link_UC12_AUTH"><path d="M315.51,1666.63 C333.26,1660.98 351.51,1652.81 366,1641 C409.2,1605.79 410,1584.75 428,1532 C501.55,1316.46 508.6966,1039.7097 509.3766,975.3997 " fill="none" id="UC12-to-AUTH" style="stroke:#888888;stroke-width:1.0;stroke-dasharray:7.0,7.0;"/><polygon fill="#888888" points="509.44,969.4,505.3451,978.3572,509.3871,974.3997,513.3446,978.4418,509.44,969.4" style="stroke:#888888;stroke-width:1.0;"/><text fill="#000000" font-family="Arial" font-size="9" lengthAdjust="spacing" textLength="38.5313" x="389" y="1529.4419">&#171;include&#187;</text></g><!--link UC13 to AUTH--><g id="link_UC13_AUTH"><path d="M306.44,1740.59 C326.43,1735.49 348.27,1727.73 366,1716 C402.35,1691.94 410.97,1680.13 428,1640 C482.32,1512.03 504.9309,1058.314 508.6709,974.994 " fill="none" id="UC13-to-AUTH" style="stroke:#888888;stroke-width:1.0;stroke-dasharray:7.0,7.0;"/><polygon fill="#888888" points="508.94,969,504.5404,977.8116,508.7158,973.995,512.5324,978.1703,508.94,969" style="stroke:#888888;stroke-width:1.0;"/><text fill="#000000" font-family="Arial" font-size="9" lengthAdjust="spacing" textLength="38.5313" x="389" y="1637.4419">&#171;include&#187;</text></g><!--link UC14 to AUTH--><g id="link_UC14_AUTH"><path d="M304.72,1808.05 C324.97,1802.86 347.43,1795.19 366,1784 C399.93,1763.57 411.21,1755.87 428,1720 C494.11,1578.81 507.3179,1064.4888 509.1379,975.1088 " fill="none" id="UC14-to-AUTH" style="stroke:#888888;stroke-width:1.0;stroke-dasharray:7.0,7.0;"/><polygon fill="#888888" points="509.26,969.11,505.0776,978.0267,509.1582,974.109,513.0759,978.1896,509.26,969.11" style="stroke:#888888;stroke-width:1.0;"/><text fill="#000000" font-family="Arial" font-size="9" lengthAdjust="spacing" textLength="38.5313" x="389" y="1717.4419">&#171;include&#187;</text></g><!--SRC=[bLRDRkCs4BxhAGZbuDCcaVo_M0JGEavIODq6zgQNeWT6ecGY4kabgMnsYmKMxLFqKA3ehK2VelicUP8EATkY7ObsUT6G7-URuVnGb0-KhR301SAnucAXFkK49IJ5PQuykGNb4YVy8sKPId4kYONSu_WX4xnaoOJdNA2JApEi7MksAyxKzxWWA18KvytuWducA0Wy2oqbYR4aw1SFeRTS94IyNzBuWH4fKN3QXzMjudg0VhLOELIDaz0Cxuj5RKvS4RSSOcEoPZhfch4nQy9LZNkU9qtUxDeK95QOPJdvltOZCzn1ECARth6n4O9_D3vkTvwCpB1Pnw3ZvIHLI74aQBPKAA7wY9GppwlYwyzl_CeEbcX-ircT5gkSV_hssxz_-ngOpcuto0mpd15XbcVNSy-hO-RVBQQJQ355r-z-U1kzyy51S6TJ8lwYWqkr94pHbAu9ehltDpgibuFfkTwhU4PWIvLsI_LQUo9WFISIaQrlqaUx0oZl9a7VP2gQN3f8U9eA-2GTmqRzNOR14GmnPWbDi2g1nt_Xmx2POOPLlDID-bsqx_kE-kY00nlZ48qdHGIpNQWOniqCaPGqOy00UH14KS8amkKJAggqIhzI3y-FY43AHO5rCUtbeM883Xs15oijAy9Y83j3Gi_I2eOY8Rc_eGeFK2LQWCvGf01DY8b2aeX76bTXgKYwpIJJ9oKmTCM-FmbPbLIYoOyrGw-POQ4W25BH3oNHBOIodD_Z_4L6GhiilxYgVG8HXIiNW3Cquubf5xGIFAMvlvDZw7hedEXgjAj_YqNCIq55QvMlFMhHN_2o80hA0vMCs7M-fzzjqo_f8oWNXvgarw9_1xvYk4KX-3gL2OzBarT_Jx_Veb_7hsYhKgC_QD6FufYigl3FIGhBmWHYIxIfo-51-vYnqXJN6U8YmuncS7iNPDra8rlVMH6NM2xlEHO9sbw_BnfkhDdwL_rfrtLtMbrlReBrDLhLqtapmsqEdfiYB5dDi7Tb1iswSm9z1PTBqX34hMvumFE2CwJb3oLT4R_flkmsC-oqPdtstIxgMRec2ntuXOfOHwm3VtF8tYCHYiOuXqj18lqYMC7tjUxrRtyzV_tp-UllgFvXrclhN06ZwVvNForfaX3sCxpLsAiBRTf0K0OleR6dVzuTG_R7yw__x7ztZ4kY3zAwruEzfwV6OD-I1vOyjEIH9OzhEJotvC2IGqlkMdBFaYsx8-Unck9uw7ZmEjduQycX9NSjkMV9VKiUMFBGajt-hdDylBFmPbeJZoqvEBSdWJq9xKdNdlIiYTlBDsyeY_Co8HSNjQUxxx5sZysBIbinhxNNDfbdtahjsD21ZHpOk1s3bqax5ZYmq85r7LZFWRdYWXnw3gphm7eEhE_01WviwC163cpim097ZW97ZW97ZW97ZeBM7Fq7]--></g></svg>